<svg version="1.1" id="Layer_1" xmlns="http://www.w3.org/2000/svg" xmlns:xlink="http://www.w3.org/1999/xlink" x="0px" y="0px"
	 width="100%" viewBox="0 0 1576 498" enable-background="new 0 0 1576 498" xml:space="preserve">
<path fill="#000000" opacity="1.000000" stroke="none" 
	d="
M1013.000000,499.000000 
	C675.373901,499.000000 338.247803,499.000000 1.060863,499.000000 
	C1.060863,333.060577 1.060863,167.121109 1.060863,1.090828 
	C526.209534,1.090828 1051.419067,1.090828 1576.814331,1.090828 
	C1576.814331,166.999832 1576.814331,332.999908 1576.814331,499.000000 
	C1389.120850,499.000000 1201.310425,499.000000 1013.000000,499.000000 
M1174.006592,271.052979 
	C1173.671021,287.634521 1173.390991,304.217438 1172.968872,320.796783 
	C1172.826660,326.385986 1172.511597,331.985016 1171.949829,337.546631 
	C1170.391479,352.972992 1168.841309,368.404205 1166.937134,383.790131 
	C1165.663940,394.078613 1163.597046,404.267426 1162.249878,414.548584 
	C1161.195679,422.593323 1162.573730,431.383392 1173.081787,434.681000 
	C1188.200439,439.425415 1203.651123,440.962738 1219.374878,441.019287 
	C1245.180298,441.112091 1270.992798,441.750916 1296.295288,435.043549 
	C1314.952759,430.097717 1327.588745,419.248901 1334.208008,400.693787 
	C1340.340332,383.504028 1341.549927,365.938965 1340.878174,348.079620 
	C1340.662598,342.350433 1339.363892,336.584778 1337.921631,331.000854 
	C1336.512573,325.544983 1331.743286,322.329407 1326.243286,321.987976 
	C1318.153198,321.485748 1312.942749,326.363281 1307.876099,331.612640 
	C1293.058716,346.964417 1274.821777,351.288727 1254.330322,347.948822 
	C1248.073730,346.929108 1242.313965,341.091492 1242.030396,335.748322 
	C1241.583984,327.337891 1241.085205,318.918243 1241.045898,310.500458 
	C1240.921631,283.841095 1240.888672,257.180145 1241.044312,230.521088 
	C1241.129517,215.937454 1241.489990,201.349838 1242.039429,186.775833 
	C1242.884888,164.352859 1243.839355,141.931122 1245.084717,119.527611 
	C1245.535767,111.413269 1247.000000,103.357811 1247.920044,95.266190 
	C1248.676392,88.613678 1249.651855,81.960297 1249.905151,75.283585 
	C1250.162842,68.491432 1247.335571,64.463364 1240.526855,63.080517 
	C1234.992432,61.956474 1228.889893,61.316151 1223.453003,62.448360 
	C1205.347046,66.218864 1188.857422,74.301620 1173.466797,84.326759 
	C1163.261963,90.974022 1153.805176,98.755829 1154.112793,112.969925 
	C1151.128052,111.308029 1148.297119,109.230278 1145.131226,108.057915 
	C1132.941284,103.544075 1120.714722,99.105492 1108.368774,95.043098 
	C1093.594849,90.181824 1078.116821,87.347954 1064.828491,78.451805 
	C1057.044189,73.240471 1051.353638,66.564743 1049.128174,57.528473 
	C1047.265015,49.963024 1046.342529,42.165939 1044.978882,34.330250 
	C1031.046631,34.330250 1016.666809,34.330250 1002.032593,34.330250 
	C1002.032593,125.866768 1002.032593,217.073563 1002.032593,308.378998 
	C986.178406,301.764587 970.445923,295.851379 952.135193,297.045166 
	C939.899963,296.243134 928.233826,299.314362 916.988770,303.373474 
	C906.686462,307.092316 897.491150,312.956360 888.954102,320.184570 
	C879.013794,328.600891 871.556213,338.670074 866.550293,350.291138 
	C860.801392,363.636963 859.108887,377.886597 862.021057,392.349701 
	C865.239868,408.335938 872.697266,422.325073 884.343018,433.538605 
	C891.686707,440.609711 899.887573,446.828552 909.581177,451.078735 
	C923.550781,457.203766 937.668335,461.353699 953.980774,459.948242 
	C960.090088,459.737244 966.356079,460.319672 972.276367,459.150940 
	C984.830017,456.672638 996.622864,452.219910 1007.676880,445.272278 
	C1021.683655,436.468750 1031.887939,424.633789 1039.210938,410.187592 
	C1044.553467,399.648193 1045.964966,388.061523 1045.975220,376.364990 
	C1046.026489,317.221985 1045.998901,258.078888 1045.998901,198.935822 
	C1045.998901,197.028275 1045.998779,195.120728 1045.998779,192.052322 
	C1050.094604,194.224884 1053.040894,196.325867 1056.322510,197.428558 
	C1066.593750,200.879791 1077.069092,203.727676 1087.321533,207.230347 
	C1101.123413,211.945740 1114.966553,216.627457 1128.445190,222.167160 
	C1135.486572,225.061111 1141.223877,230.316422 1145.078613,237.270676 
	C1150.059937,246.257385 1151.739624,255.965958 1152.095459,266.076355 
	C1152.153442,267.720154 1153.451904,270.708252 1154.217041,270.721344 
	C1160.803345,270.833771 1167.398804,270.405518 1174.006592,271.052979 
M716.131287,297.044006 
	C701.729187,296.640411 688.118713,299.876923 675.008728,305.035675 
	C675.339172,294.285400 675.784851,283.537170 675.976257,272.784424 
	C676.387085,249.705048 676.504333,226.619370 677.063293,203.544083 
	C677.378418,190.534241 678.083984,177.520996 679.068115,164.543747 
	C680.093506,151.022537 681.300476,137.493927 683.099854,124.058502 
	C684.924866,110.432190 687.337402,96.870972 689.933228,83.365929 
	C691.904785,73.108788 687.523682,63.930119 678.344116,62.303478 
	C673.014282,61.359009 667.157166,61.048656 661.939026,62.228821 
	C641.677124,66.811386 623.343262,75.597824 609.391418,91.380753 
	C602.751221,98.892441 599.787109,107.963020 601.756531,118.746902 
	C604.557312,134.083008 607.540222,149.654495 607.692322,165.152435 
	C608.066284,203.263199 610.123962,241.501938 603.127869,279.388367 
	C600.979187,291.024414 597.369873,301.927887 590.102722,311.101868 
	C585.486206,316.929718 578.758484,319.553345 570.781677,318.104279 
	C564.455139,316.955048 561.053467,312.577362 558.384888,307.676270 
	C552.803406,297.425415 551.045288,285.916168 550.225159,274.579010 
	C549.265442,261.313141 549.750488,247.918961 550.059631,234.590897 
	C550.484924,216.250946 551.332031,197.920746 552.000549,179.586441 
	C552.331665,170.502823 552.609924,161.416733 553.027161,152.337051 
	C553.215149,148.246124 553.601868,144.159195 554.042358,140.086029 
	C555.322632,128.248138 556.629822,116.412735 558.016724,104.586952 
	C558.888550,97.153641 559.561829,89.670036 560.970825,82.333191 
	C562.964172,71.953339 558.946838,63.907799 549.284790,62.309212 
	C543.473511,61.347733 537.231812,61.443668 531.406311,62.408909 
	C515.410645,65.059235 500.765198,71.601494 486.804565,79.680374 
	C477.629700,84.989784 469.532990,91.556114 465.226898,101.564682 
	C461.912506,109.268356 462.170563,117.446907 468.335510,125.126968 
	C471.746948,129.376801 474.910431,134.741196 475.716736,139.982971 
	C477.603058,152.245453 478.616913,164.725647 478.846222,177.138702 
	C479.143158,193.209366 478.337372,209.300583 477.998840,225.382767 
	C477.670837,240.965317 477.329163,256.547546 477.001160,272.130096 
	C476.662628,288.212280 475.680298,304.315094 476.181976,320.371307 
	C476.692780,336.721130 477.873535,353.144562 480.300842,369.304474 
	C481.753571,378.976074 485.149139,388.704315 489.501709,397.501556 
	C494.651886,407.910980 502.134399,416.966919 511.087952,424.757080 
	C518.161682,430.911682 525.908142,435.747650 534.591003,438.927338 
	C547.955200,443.821320 561.668579,444.747833 575.938232,443.223938 
	C590.982788,441.617310 605.036499,437.690247 618.114136,430.321594 
	C624.269043,426.853577 630.034241,422.694061 636.611633,419.172821 
	C637.488525,420.701935 638.121216,422.455139 639.283813,423.722015 
	C644.813354,429.747131 650.149170,435.800934 656.858032,440.837463 
	C665.854797,447.591675 675.463806,452.358490 685.972595,456.032684 
	C696.154236,459.592499 706.440979,460.631989 717.974487,459.967316 
	C723.955322,459.857452 730.179382,460.773682 735.866821,459.425903 
	C748.003296,456.550049 759.838806,452.725037 770.661621,445.919769 
	C780.989258,439.425812 789.685547,431.295319 796.532654,421.546753 
	C805.878479,408.240692 809.890991,392.816101 809.931458,376.619843 
	C810.079834,317.298218 809.990112,257.976013 809.989929,198.654022 
	C809.989929,196.864044 809.989807,195.074081 809.989807,192.032394 
	C814.080200,194.206314 817.152283,196.392593 820.572205,197.557953 
	C833.335266,201.907135 846.202637,205.951752 859.049194,210.053329 
	C872.631104,214.389679 886.790833,217.309433 898.514465,226.172577 
	C904.106812,230.400421 908.418396,235.576477 911.138184,242.178329 
	C914.830811,251.141327 916.369751,260.406647 916.480469,270.825226 
	C930.020081,270.882843 943.559631,270.953766 957.099243,270.953430 
	C957.692993,270.953430 958.286804,270.300812 958.980774,269.025696 
	C958.987183,243.201935 959.267029,217.373825 958.854919,191.556747 
	C958.706421,182.252213 957.909363,172.720474 955.659180,163.730209 
	C947.947449,132.918610 926.813171,114.073700 898.136902,103.209465 
	C884.065430,97.878380 869.323242,94.321655 854.897461,89.919868 
	C844.406921,86.718880 834.156067,83.026772 825.311584,76.207970 
	C817.903198,70.496368 813.634216,62.954269 812.030151,53.900391 
	C810.869812,47.350868 810.123352,40.728020 809.213684,34.289635 
	C794.914490,34.289635 780.649414,34.289635 766.103699,34.289635 
	C766.103699,125.829597 766.103699,217.080566 766.103699,308.818451 
	C750.267883,301.538849 734.441406,295.958313 716.131287,297.044006 
M249.511459,325.992279 
	C249.332565,330.615479 249.352585,335.256622 248.937256,339.858490 
	C247.717575,353.373291 246.304550,366.870514 245.007996,380.378540 
	C244.288513,387.874298 243.888565,395.408783 242.919525,402.870605 
	C241.477585,413.973694 239.282333,424.989532 238.148071,436.117981 
	C237.504852,442.428833 240.520798,449.770264 247.942947,450.893738 
	C254.241226,451.847107 260.875153,452.690521 267.078033,451.739594 
	C281.149536,449.582275 294.420258,444.492920 306.553833,436.980011 
	C320.926361,428.080688 326.265320,418.949646 324.936310,405.661530 
	C323.525818,391.558899 321.305878,377.531586 320.116547,363.414337 
	C319.200836,352.544708 319.119171,341.588196 319.044983,330.667755 
	C318.894409,308.503204 318.999969,286.336884 319.000031,264.171295 
	C319.000031,257.002350 322.932434,251.565536 329.585449,248.970581 
	C339.403564,245.141052 349.626984,244.460953 359.946167,245.069672 
	C368.198120,245.556473 373.305145,249.605576 374.763092,256.597076 
	C375.593536,260.579285 375.980377,264.734436 375.934692,268.804596 
	C375.765411,283.891571 375.309265,298.975128 375.006287,314.060883 
	C374.646423,331.978699 374.166687,349.896545 374.068054,367.816162 
	C374.016205,377.232758 374.422302,386.669922 375.064819,396.067505 
	C375.789185,406.662445 376.853912,417.241760 378.083954,427.791290 
	C378.705872,433.125305 380.961578,437.633240 385.457458,441.215820 
	C394.928223,448.762604 406.087189,448.345612 416.475128,446.445038 
	C432.159332,443.575500 446.949036,437.579926 459.622467,427.158722 
	C468.067596,420.214355 471.628906,407.854614 465.147614,398.646881 
	C461.356628,393.261200 456.691711,388.201080 454.198181,382.249481 
	C448.244476,368.039001 447.358490,352.617767 446.147888,337.478485 
	C444.832275,321.026215 444.030334,304.477875 444.135376,287.978638 
	C444.340179,255.805756 445.228149,223.635147 446.065704,191.469635 
	C446.309113,182.122635 446.992340,172.754700 448.094391,163.470001 
	C449.779419,149.274170 451.864868,135.121002 454.037537,120.989281 
	C456.175781,107.081345 458.586304,93.214363 460.977753,79.346718 
	C461.857391,74.245895 459.147491,67.231644 454.104797,66.295731 
	C447.269623,65.027130 439.980103,64.742767 433.080353,65.601700 
	C420.146027,67.211853 408.673462,73.091675 397.554047,79.760254 
	C387.571960,85.746758 379.715851,93.477844 377.613617,105.126465 
	C376.531921,111.120117 377.826721,117.535873 377.989899,123.762398 
	C378.345947,137.346313 378.771179,150.929886 378.938446,164.516434 
	C378.992767,168.929901 377.825531,173.384308 378.103180,177.763809 
	C378.726624,187.597687 372.628448,191.892426 364.658264,194.014099 
	C353.502350,196.983795 342.282837,196.355377 330.979218,195.056335 
	C322.979797,194.137009 318.952148,190.228912 319.050720,182.138565 
	C319.114746,176.883087 319.805328,171.637955 319.972656,166.380478 
	C320.389038,153.297867 320.667053,140.210876 320.998810,127.125587 
	C321.011475,126.625900 320.998413,126.125580 321.009186,125.625816 
	C321.337646,110.373550 321.931854,95.120300 321.873444,79.869553 
	C321.848450,73.335304 316.925537,67.035339 311.335602,66.291672 
	C305.986603,65.580070 300.249329,65.506966 295.024597,66.678177 
	C287.264801,68.417648 279.529846,70.885674 272.279083,74.144463 
	C258.792297,80.206001 245.410233,87.039139 236.965408,99.796097 
	C230.303772,109.859306 229.448044,118.285149 236.382538,126.657028 
	C244.791977,136.809555 248.951218,148.333481 249.927826,161.139435 
	C250.631271,170.363312 250.685135,179.637527 250.995010,188.890427 
	C251.349503,199.475082 251.986267,210.062637 251.932831,220.646057 
	C251.824646,242.065353 251.381836,263.483643 250.982452,284.900574 
	C250.732193,298.320679 250.309708,311.737579 249.511459,325.992279 
M70.067436,430.586761 
	C71.088417,431.062164 72.184265,431.422394 73.119202,432.030151 
	C88.567879,442.072845 105.935295,445.373688 123.900299,445.857330 
	C131.203903,446.053925 138.572311,444.848755 145.872787,443.964142 
	C166.732376,441.436615 183.885773,431.417084 199.100006,417.444122 
	C211.653442,405.914856 219.281830,391.604095 224.061874,375.426575 
	C228.824860,359.306824 229.205353,342.855438 229.061325,326.262177 
	C228.955811,314.105560 226.621536,302.384644 223.346603,290.784424 
	C215.492950,262.965820 198.893997,240.498138 179.968246,219.357132 
	C171.595474,210.004349 163.466232,200.369003 155.988281,190.296326 
	C146.995819,178.183640 139.494888,165.299652 141.957916,149.070145 
	C143.653366,137.898560 152.088745,125.776459 166.223389,125.865494 
	C175.137772,125.921646 182.597580,130.409271 190.852386,132.228561 
	C201.615967,134.600754 208.395065,133.621567 210.738190,121.516930 
	C212.379288,113.038895 212.505127,104.025970 211.726059,95.394684 
	C211.059097,88.005127 208.700729,80.699059 203.340454,74.734497 
	C194.248856,64.617950 182.010284,62.447632 169.708817,62.263069 
	C157.152573,62.074692 144.396179,63.044235 132.029327,65.221664 
	C112.631241,68.637085 95.405502,77.428261 80.799515,90.774223 
	C65.462402,104.788223 58.129272,122.960770 56.154484,143.133347 
	C54.266014,162.424225 57.345242,181.022949 66.743515,198.430908 
	C75.370171,214.409668 87.088387,228.030060 98.464851,241.934647 
	C111.510757,257.879639 125.542641,273.025909 135.764450,291.157379 
	C143.652466,305.149200 149.422699,319.419128 145.996979,335.896179 
	C142.226440,354.031891 124.325897,362.967773 108.195724,352.742676 
	C96.427223,345.282532 93.066338,333.104431 90.077118,320.804291 
	C88.331696,313.622131 88.004494,306.042267 85.744049,299.060669 
	C84.611206,295.561798 80.971161,291.031097 77.783363,290.397705 
	C69.289017,288.709839 61.033012,290.513214 54.344269,297.094818 
	C40.003132,311.206268 34.806301,329.100159 33.133419,348.318451 
	C32.610405,354.326874 33.713455,360.470673 33.989101,366.556274 
	C34.463207,377.023407 37.388695,386.802856 41.683826,396.313965 
	C47.924915,410.134216 57.225212,421.316254 70.067436,430.586761 
M1370.961060,176.272430 
	C1369.973999,181.343048 1368.795898,186.386169 1368.061279,191.493103 
	C1367.485840,195.492950 1366.984985,198.871002 1362.764038,201.285553 
	C1359.318970,203.256210 1356.410400,206.667038 1354.093384,210.013535 
	C1347.134766,220.063309 1342.877441,231.385880 1341.178467,243.413437 
	C1340.276367,249.799347 1340.054688,256.972931 1346.148193,261.429413 
	C1349.340088,263.763672 1353.577881,264.667969 1357.999878,266.488373 
	C1357.999878,266.419464 1358.055664,267.394897 1357.991577,268.362427 
	C1357.339722,278.200806 1356.304932,288.030701 1356.109741,297.877472 
	C1355.933105,306.786011 1356.329468,315.741272 1357.083496,324.624115 
	C1358.075562,336.310638 1359.084106,348.049255 1361.125488,359.581390 
	C1364.692261,379.730438 1371.359619,398.609253 1384.365845,415.061188 
	C1398.353882,432.754913 1416.955933,441.647430 1438.535767,443.721039 
	C1456.098389,445.408600 1473.854004,444.551331 1490.534302,437.028137 
	C1505.815918,430.135803 1519.588501,421.518097 1529.354370,407.311981 
	C1538.392578,394.164185 1541.407471,379.621765 1539.771240,364.179077 
	C1539.240112,359.167725 1536.847046,353.858551 1533.877563,349.707092 
	C1528.265015,341.860779 1519.834106,342.206940 1508.653564,348.818481 
	C1505.496948,350.685120 1502.332642,352.681915 1498.922485,353.947205 
	C1491.378784,356.746246 1483.576172,356.951630 1475.549561,356.108917 
	C1465.267578,355.029480 1455.803101,351.992218 1448.450684,344.768524 
	C1436.054199,332.588989 1431.683838,316.671173 1430.149292,300.016418 
	C1429.312256,290.931854 1429.931763,281.706207 1430.019287,272.545349 
	C1430.106934,263.367279 1433.865967,257.946381 1442.079224,256.115997 
	C1447.443848,254.920425 1453.008423,254.234558 1458.503418,254.091949 
	C1469.632690,253.803162 1480.409424,252.461197 1490.830322,248.105438 
	C1507.314453,241.215378 1519.724487,229.688858 1518.126831,209.601852 
	C1517.364990,200.023727 1512.946167,194.883621 1503.186646,195.041626 
	C1495.264404,195.169861 1487.346924,195.967499 1479.429932,195.928772 
	C1467.843262,195.872131 1456.253540,195.448807 1444.677856,194.907288 
	C1442.207275,194.791702 1439.502930,193.943634 1437.445557,192.604477 
	C1435.896973,191.596542 1434.200806,189.204773 1434.298950,187.530411 
	C1435.134155,173.283798 1439.125977,160.048279 1448.064575,148.619415 
	C1458.550659,135.212326 1472.782471,129.120300 1489.319214,129.222610 
	C1498.422852,129.278931 1507.258545,132.060303 1515.743286,136.104141 
	C1531.962280,143.834198 1539.739136,137.147202 1542.756714,125.045982 
	C1545.212891,115.195534 1544.963257,104.926834 1541.007568,95.209404 
	C1538.431274,88.880127 1536.612671,81.901855 1532.647095,76.554848 
	C1525.961914,67.540787 1514.896851,65.878212 1504.721802,65.271194 
	C1489.155640,64.342545 1473.451904,64.192780 1458.016724,67.951553 
	C1439.066040,72.566429 1422.096313,80.781395 1408.568848,95.029419 
	C1396.065674,108.198608 1387.033691,123.693192 1381.103638,140.790817 
	C1377.170410,152.131439 1374.328003,163.850327 1370.961060,176.272430 
z"/>
<path fill="#FFFFFF" opacity="1.000000" stroke="none" 
	d="
M249.737976,325.574097 
	C250.309708,311.737579 250.732193,298.320679 250.982452,284.900574 
	C251.381836,263.483643 251.824646,242.065353 251.932831,220.646057 
	C251.986267,210.062637 251.349503,199.475082 250.995010,188.890427 
	C250.685135,179.637527 250.631271,170.363312 249.927826,161.139435 
	C248.951218,148.333481 244.791977,136.809555 236.382538,126.657028 
	C229.448044,118.285149 230.303772,109.859306 236.965408,99.796097 
	C245.410233,87.039139 258.792297,80.206001 272.279083,74.144463 
	C279.529846,70.885674 287.264801,68.417648 295.024597,66.678177 
	C300.249329,65.506966 305.986603,65.580070 311.335602,66.291672 
	C316.925537,67.035339 321.848450,73.335304 321.873444,79.869553 
	C321.931854,95.120300 321.337646,110.373550 321.009186,125.625816 
	C320.998413,126.125580 321.011475,126.625900 320.998810,127.125587 
	C320.667053,140.210876 320.389038,153.297867 319.972656,166.380478 
	C319.805328,171.637955 319.114746,176.883087 319.050720,182.138565 
	C318.952148,190.228912 322.979797,194.137009 330.979218,195.056335 
	C342.282837,196.355377 353.502350,196.983795 364.658264,194.014099 
	C372.628448,191.892426 378.726624,187.597687 378.103180,177.763809 
	C377.825531,173.384308 378.992767,168.929901 378.938446,164.516434 
	C378.771179,150.929886 378.345947,137.346313 377.989899,123.762398 
	C377.826721,117.535873 376.531921,111.120117 377.613617,105.126465 
	C379.715851,93.477844 387.571960,85.746758 397.554047,79.760254 
	C408.673462,73.091675 420.146027,67.211853 433.080353,65.601700 
	C439.980103,64.742767 447.269623,65.027130 454.104797,66.295731 
	C459.147491,67.231644 461.857391,74.245895 460.977753,79.346718 
	C458.586304,93.214363 456.175781,107.081345 454.037537,120.989281 
	C451.864868,135.121002 449.779419,149.274170 448.094391,163.470001 
	C446.992340,172.754700 446.309113,182.122635 446.065704,191.469635 
	C445.228149,223.635147 444.340179,255.805756 444.135376,287.978638 
	C444.030334,304.477875 444.832275,321.026215 446.147888,337.478485 
	C447.358490,352.617767 448.244476,368.039001 454.198181,382.249481 
	C456.691711,388.201080 461.356628,393.261200 465.147614,398.646881 
	C471.628906,407.854614 468.067596,420.214355 459.622467,427.158722 
	C446.949036,437.579926 432.159332,443.575500 416.475128,446.445038 
	C406.087189,448.345612 394.928223,448.762604 385.457458,441.215820 
	C380.961578,437.633240 378.705872,433.125305 378.083954,427.791290 
	C376.853912,417.241760 375.789185,406.662445 375.064819,396.067505 
	C374.422302,386.669922 374.016205,377.232758 374.068054,367.816162 
	C374.166687,349.896545 374.646423,331.978699 375.006287,314.060883 
	C375.309265,298.975128 375.765411,283.891571 375.934692,268.804596 
	C375.980377,264.734436 375.593536,260.579285 374.763092,256.597076 
	C373.305145,249.605576 368.198120,245.556473 359.946167,245.069672 
	C349.626984,244.460953 339.403564,245.141052 329.585449,248.970581 
	C322.932434,251.565536 319.000031,257.002350 319.000031,264.171295 
	C318.999969,286.336884 318.894409,308.503204 319.044983,330.667755 
	C319.119171,341.588196 319.200836,352.544708 320.116547,363.414337 
	C321.305878,377.531586 323.525818,391.558899 324.936310,405.661530 
	C326.265320,418.949646 320.926361,428.080688 306.553833,436.980011 
	C294.420258,444.492920 281.149536,449.582275 267.078033,451.739594 
	C260.875153,452.690521 254.241226,451.847107 247.942947,450.893738 
	C240.520798,449.770264 237.504852,442.428833 238.148071,436.117981 
	C239.282333,424.989532 241.477585,413.973694 242.919525,402.870605 
	C243.888565,395.408783 244.288513,387.874298 245.007996,380.378540 
	C246.304550,366.870514 247.717575,353.373291 248.937256,339.858490 
	C249.352585,335.256622 249.332565,330.615479 249.737976,325.574097 
z"/>
<path fill="#FFFFFF" opacity="1.000000" stroke="none" 
	d="
M635.976013,418.847900 
	C630.034241,422.694061 624.269043,426.853577 618.114136,430.321594 
	C605.036499,437.690247 590.982788,441.617310 575.938232,443.223938 
	C561.668579,444.747833 547.955200,443.821320 534.591003,438.927338 
	C525.908142,435.747650 518.161682,430.911682 511.087952,424.757080 
	C502.134399,416.966919 494.651886,407.910980 489.501709,397.501556 
	C485.149139,388.704315 481.753571,378.976074 480.300842,369.304474 
	C477.873535,353.144562 476.692780,336.721130 476.181976,320.371307 
	C475.680298,304.315094 476.662628,288.212280 477.001160,272.130096 
	C477.329163,256.547546 477.670837,240.965317 477.998840,225.382767 
	C478.337372,209.300583 479.143158,193.209366 478.846222,177.138702 
	C478.616913,164.725647 477.603058,152.245453 475.716736,139.982971 
	C474.910431,134.741196 471.746948,129.376801 468.335510,125.126968 
	C462.170563,117.446907 461.912506,109.268356 465.226898,101.564682 
	C469.532990,91.556114 477.629700,84.989784 486.804565,79.680374 
	C500.765198,71.601494 515.410645,65.059235 531.406311,62.408909 
	C537.231812,61.443668 543.473511,61.347733 549.284790,62.309212 
	C558.946838,63.907799 562.964172,71.953339 560.970825,82.333191 
	C559.561829,89.670036 558.888550,97.153641 558.016724,104.586952 
	C556.629822,116.412735 555.322632,128.248138 554.042358,140.086029 
	C553.601868,144.159195 553.215149,148.246124 553.027161,152.337051 
	C552.609924,161.416733 552.331665,170.502823 552.000549,179.586441 
	C551.332031,197.920746 550.484924,216.250946 550.059631,234.590897 
	C549.750488,247.918961 549.265442,261.313141 550.225159,274.579010 
	C551.045288,285.916168 552.803406,297.425415 558.384888,307.676270 
	C561.053467,312.577362 564.455139,316.955048 570.781677,318.104279 
	C578.758484,319.553345 585.486206,316.929718 590.102722,311.101868 
	C597.369873,301.927887 600.979187,291.024414 603.127869,279.388367 
	C610.123962,241.501938 608.066284,203.263199 607.692322,165.152435 
	C607.540222,149.654495 604.557312,134.083008 601.756531,118.746902 
	C599.787109,107.963020 602.751221,98.892441 609.391418,91.380753 
	C623.343262,75.597824 641.677124,66.811386 661.939026,62.228821 
	C667.157166,61.048656 673.014282,61.359009 678.344116,62.303478 
	C687.523682,63.930119 691.904785,73.108788 689.933228,83.365929 
	C687.337402,96.870972 684.924866,110.432190 683.099854,124.058502 
	C681.300476,137.493927 680.093506,151.022537 679.068115,164.543747 
	C678.083984,177.520996 677.378418,190.534241 677.063293,203.544083 
	C676.504333,226.619370 676.387085,249.705048 675.976257,272.784424 
	C675.784851,283.537170 675.339172,294.285400 674.881714,305.800568 
	C662.256470,313.288513 650.774536,321.107239 641.872559,332.578064 
	C631.259888,346.253265 625.401245,361.527252 625.135071,378.659912 
	C624.939514,391.248932 628.406128,403.194336 634.554260,414.289703 
	C635.309753,415.653107 635.515503,417.321045 635.976013,418.847900 
z"/>
<path fill="#FFFFFF" opacity="1.000000" stroke="none" 
	d="
M69.816010,430.313660 
	C57.225212,421.316254 47.924915,410.134216 41.683826,396.313965 
	C37.388695,386.802856 34.463207,377.023407 33.989101,366.556274 
	C33.713455,360.470673 32.610405,354.326874 33.133419,348.318451 
	C34.806301,329.100159 40.003132,311.206268 54.344269,297.094818 
	C61.033012,290.513214 69.289017,288.709839 77.783363,290.397705 
	C80.971161,291.031097 84.611206,295.561798 85.744049,299.060669 
	C88.004494,306.042267 88.331696,313.622131 90.077118,320.804291 
	C93.066338,333.104431 96.427223,345.282532 108.195724,352.742676 
	C124.325897,362.967773 142.226440,354.031891 145.996979,335.896179 
	C149.422699,319.419128 143.652466,305.149200 135.764450,291.157379 
	C125.542641,273.025909 111.510757,257.879639 98.464851,241.934647 
	C87.088387,228.030060 75.370171,214.409668 66.743515,198.430908 
	C57.345242,181.022949 54.266014,162.424225 56.154484,143.133347 
	C58.129272,122.960770 65.462402,104.788223 80.799515,90.774223 
	C95.405502,77.428261 112.631241,68.637085 132.029327,65.221664 
	C144.396179,63.044235 157.152573,62.074692 169.708817,62.263069 
	C182.010284,62.447632 194.248856,64.617950 203.340454,74.734497 
	C208.700729,80.699059 211.059097,88.005127 211.726059,95.394684 
	C212.505127,104.025970 212.379288,113.038895 210.738190,121.516930 
	C208.395065,133.621567 201.615967,134.600754 190.852386,132.228561 
	C182.597580,130.409271 175.137772,125.921646 166.223389,125.865494 
	C152.088745,125.776459 143.653366,137.898560 141.957916,149.070145 
	C139.494888,165.299652 146.995819,178.183640 155.988281,190.296326 
	C163.466232,200.369003 171.595474,210.004349 179.968246,219.357132 
	C198.893997,240.498138 215.492950,262.965820 223.346603,290.784424 
	C226.621536,302.384644 228.955811,314.105560 229.061325,326.262177 
	C229.205353,342.855438 228.824860,359.306824 224.061874,375.426575 
	C219.281830,391.604095 211.653442,405.914856 199.100006,417.444122 
	C183.885773,431.417084 166.732376,441.436615 145.872787,443.964142 
	C138.572311,444.848755 131.203903,446.053925 123.900299,445.857330 
	C105.935295,445.373688 88.567879,442.072845 73.119202,432.030151 
	C72.184265,431.422394 71.088417,431.062164 69.816010,430.313660 
z"/>
<path fill="#FFFFFF" opacity="1.000000" stroke="none" 
	d="
M1370.979248,175.836166 
	C1374.328003,163.850327 1377.170410,152.131439 1381.103638,140.790817 
	C1387.033691,123.693192 1396.065674,108.198608 1408.568848,95.029419 
	C1422.096313,80.781395 1439.066040,72.566429 1458.016724,67.951553 
	C1473.451904,64.192780 1489.155640,64.342545 1504.721802,65.271194 
	C1514.896851,65.878212 1525.961914,67.540787 1532.647095,76.554848 
	C1536.612671,81.901855 1538.431274,88.880127 1541.007568,95.209404 
	C1544.963257,104.926834 1545.212891,115.195534 1542.756714,125.045982 
	C1539.739136,137.147202 1531.962280,143.834198 1515.743286,136.104141 
	C1507.258545,132.060303 1498.422852,129.278931 1489.319214,129.222610 
	C1472.782471,129.120300 1458.550659,135.212326 1448.064575,148.619415 
	C1439.125977,160.048279 1435.134155,173.283798 1434.298950,187.530411 
	C1434.200806,189.204773 1435.896973,191.596542 1437.445557,192.604477 
	C1439.502930,193.943634 1442.207275,194.791702 1444.677856,194.907288 
	C1456.253540,195.448807 1467.843262,195.872131 1479.429932,195.928772 
	C1487.346924,195.967499 1495.264404,195.169861 1503.186646,195.041626 
	C1512.946167,194.883621 1517.364990,200.023727 1518.126831,209.601852 
	C1519.724487,229.688858 1507.314453,241.215378 1490.830322,248.105438 
	C1480.409424,252.461197 1469.632690,253.803162 1458.503418,254.091949 
	C1453.008423,254.234558 1447.443848,254.920425 1442.079224,256.115997 
	C1433.865967,257.946381 1430.106934,263.367279 1430.019287,272.545349 
	C1429.931763,281.706207 1429.312256,290.931854 1430.149292,300.016418 
	C1431.683838,316.671173 1436.054199,332.588989 1448.450684,344.768524 
	C1455.803101,351.992218 1465.267578,355.029480 1475.549561,356.108917 
	C1483.576172,356.951630 1491.378784,356.746246 1498.922485,353.947205 
	C1502.332642,352.681915 1505.496948,350.685120 1508.653564,348.818481 
	C1519.834106,342.206940 1528.265015,341.860779 1533.877563,349.707092 
	C1536.847046,353.858551 1539.240112,359.167725 1539.771240,364.179077 
	C1541.407471,379.621765 1538.392578,394.164185 1529.354370,407.311981 
	C1519.588501,421.518097 1505.815918,430.135803 1490.534302,437.028137 
	C1473.854004,444.551331 1456.098389,445.408600 1438.535767,443.721039 
	C1416.955933,441.647430 1398.353882,432.754913 1384.365845,415.061188 
	C1371.359619,398.609253 1364.692261,379.730438 1361.125488,359.581390 
	C1359.084106,348.049255 1358.075562,336.310638 1357.083496,324.624115 
	C1356.329468,315.741272 1355.933105,306.786011 1356.109741,297.877472 
	C1356.304932,288.030701 1357.339722,278.200806 1357.991577,268.362427 
	C1358.055664,267.394897 1357.999878,266.419464 1357.999878,266.488373 
	C1353.577881,264.667969 1349.340088,263.763672 1346.148193,261.429413 
	C1340.054688,256.972931 1340.276367,249.799347 1341.178467,243.413437 
	C1342.877441,231.385880 1347.134766,220.063309 1354.093384,210.013535 
	C1356.410400,206.667038 1359.318970,203.256210 1362.764038,201.285553 
	C1366.984985,198.871002 1367.485840,195.492950 1368.061279,191.493103 
	C1368.795898,186.386169 1369.973999,181.343048 1370.979248,175.836166 
z"/>
<path fill="#6712E0" opacity="1.000000" stroke="none" 
	d="
M916.165649,270.029510 
	C916.369751,260.406647 914.830811,251.141327 911.138184,242.178329 
	C908.418396,235.576477 904.106812,230.400421 898.514465,226.172577 
	C886.790833,217.309433 872.631104,214.389679 859.049194,210.053329 
	C846.202637,205.951752 833.335266,201.907135 820.572205,197.557953 
	C817.152283,196.392593 814.080200,194.206314 809.989807,192.032394 
	C809.989807,195.074081 809.989929,196.864044 809.989929,198.654022 
	C809.990112,257.976013 810.079834,317.298218 809.931458,376.619843 
	C809.890991,392.816101 805.878479,408.240692 796.532654,421.546753 
	C789.685547,431.295319 780.989258,439.425812 770.661621,445.919769 
	C759.838806,452.725037 748.003296,456.550049 735.866821,459.425903 
	C730.179382,460.773682 723.955322,459.857452 717.499023,459.443542 
	C717.035217,405.009003 717.046936,351.098297 717.058594,297.187561 
	C734.441406,295.958313 750.267883,301.538849 766.103699,308.818451 
	C766.103699,217.080566 766.103699,125.829597 766.103699,34.289635 
	C780.649414,34.289635 794.914490,34.289635 809.213684,34.289635 
	C810.123352,40.728020 810.869812,47.350868 812.030151,53.900391 
	C813.634216,62.954269 817.903198,70.496368 825.311584,76.207970 
	C834.156067,83.026772 844.406921,86.718880 854.897461,89.919868 
	C869.323242,94.321655 884.065430,97.878380 898.136902,103.209465 
	C926.813171,114.073700 947.947449,132.918610 955.659180,163.730209 
	C957.909363,172.720474 958.706421,182.252213 958.854919,191.556747 
	C959.267029,217.373825 958.987183,243.201935 958.470459,269.497559 
	C944.028625,269.989471 930.097107,270.009491 916.165649,270.029510 
M831.971130,128.439377 
	C825.013306,125.608223 818.055420,122.777061 811.045898,119.924881 
	C811.045898,120.836899 810.923828,121.852760 811.080566,122.823586 
	C811.234314,123.775131 811.870789,124.663109 811.955139,125.609329 
	C813.473877,142.641357 825.026001,151.765701 839.042419,157.695740 
	C850.042175,162.349442 862.074463,164.498474 873.458374,168.324493 
	C887.285767,172.971710 900.914001,178.211487 914.994568,183.327972 
	C914.698120,181.669998 914.395752,179.682388 913.982971,177.717972 
	C911.163635,164.299973 903.747681,153.969894 891.363159,148.378784 
	C881.213257,143.796463 870.323181,140.826691 859.700073,137.327576 
	C850.727783,134.372192 841.667786,131.682968 831.971130,128.439377 
z"/>
<path fill="#6712E0" opacity="1.000000" stroke="none" 
	d="
M953.061829,297.197754 
	C970.445923,295.851379 986.178406,301.764587 1002.032593,308.378998 
	C1002.032593,217.073563 1002.032593,125.866768 1002.032593,34.330250 
	C1016.666809,34.330250 1031.046631,34.330250 1044.978882,34.330250 
	C1046.342529,42.165939 1047.265015,49.963024 1049.128174,57.528473 
	C1051.353638,66.564743 1057.044189,73.240471 1064.828491,78.451805 
	C1078.116821,87.347954 1093.594849,90.181824 1108.368774,95.043098 
	C1120.714722,99.105492 1132.941284,103.544075 1145.131226,108.057915 
	C1148.297119,109.230278 1151.128052,111.308029 1154.564209,113.326920 
	C1156.292114,114.894676 1157.438965,116.291145 1158.865601,117.286682 
	C1169.797119,124.914726 1178.527832,134.531845 1184.261597,146.549438 
	C1191.789551,162.327545 1194.540527,179.284256 1194.764648,196.593048 
	C1195.057251,219.207382 1194.843628,241.828323 1194.830444,264.446411 
	C1194.829590,265.888214 1194.678345,267.329926 1194.572754,269.201141 
	C1187.467163,269.524811 1180.729370,269.831696 1173.991577,270.138611 
	C1167.398804,270.405518 1160.803345,270.833771 1154.217041,270.721344 
	C1153.451904,270.708252 1152.153442,267.720154 1152.095459,266.076355 
	C1151.739624,255.965958 1150.059937,246.257385 1145.078613,237.270676 
	C1141.223877,230.316422 1135.486572,225.061111 1128.445190,222.167160 
	C1114.966553,216.627457 1101.123413,211.945740 1087.321533,207.230347 
	C1077.069092,203.727676 1066.593750,200.879791 1056.322510,197.428558 
	C1053.040894,196.325867 1050.094604,194.224884 1045.998779,192.052322 
	C1045.998779,195.120728 1045.998901,197.028275 1045.998901,198.935822 
	C1045.998901,258.078888 1046.026489,317.221985 1045.975220,376.364990 
	C1045.964966,388.061523 1044.553467,399.648193 1039.210938,410.187592 
	C1031.887939,424.633789 1021.683655,436.468750 1007.676880,445.272278 
	C996.622864,452.219910 984.830017,456.672638 972.276367,459.150940 
	C966.356079,460.319672 960.090088,459.737244 953.513306,459.420929 
	C953.051208,404.994995 953.056519,351.096375 953.061829,297.197754 
M1135.925049,153.437271 
	C1129.584229,149.975388 1123.509399,145.831482 1116.833862,143.227768 
	C1108.853882,140.115311 1100.284790,138.552231 1092.104980,135.904037 
	C1076.956909,130.999924 1061.906372,125.794777 1046.955200,120.762131 
	C1047.199585,122.133377 1047.569824,124.374619 1048.001221,126.604019 
	C1050.157715,137.748291 1055.823608,147.164352 1065.569946,152.480164 
	C1075.285400,157.779099 1086.081787,161.198425 1096.591064,164.913208 
	C1109.293335,169.403107 1122.220581,173.252563 1134.991943,177.552704 
	C1140.295044,179.338272 1145.447021,181.572800 1150.920044,183.701263 
	C1149.980713,171.627960 1145.682129,161.585785 1135.925049,153.437271 
z"/>
<path fill="#FFFFFF" opacity="1.000000" stroke="none" 
	d="
M1173.999023,270.595795 
	C1180.729370,269.831696 1187.467163,269.524811 1194.572754,269.201141 
	C1194.678345,267.329926 1194.829590,265.888214 1194.830444,264.446411 
	C1194.843628,241.828323 1195.057251,219.207382 1194.764648,196.593048 
	C1194.540527,179.284256 1191.789551,162.327545 1184.261597,146.549438 
	C1178.527832,134.531845 1169.797119,124.914726 1158.865601,117.286682 
	C1157.438965,116.291145 1156.292114,114.894676 1154.918335,113.342010 
	C1153.805176,98.755829 1163.261963,90.974022 1173.466797,84.326759 
	C1188.857422,74.301620 1205.347046,66.218864 1223.453003,62.448360 
	C1228.889893,61.316151 1234.992432,61.956474 1240.526855,63.080517 
	C1247.335571,64.463364 1250.162842,68.491432 1249.905151,75.283585 
	C1249.651855,81.960297 1248.676392,88.613678 1247.920044,95.266190 
	C1247.000000,103.357811 1245.535767,111.413269 1245.084717,119.527611 
	C1243.839355,141.931122 1242.884888,164.352859 1242.039429,186.775833 
	C1241.489990,201.349838 1241.129517,215.937454 1241.044312,230.521088 
	C1240.888672,257.180145 1240.921631,283.841095 1241.045898,310.500458 
	C1241.085205,318.918243 1241.583984,327.337891 1242.030396,335.748322 
	C1242.313965,341.091492 1248.073730,346.929108 1254.330322,347.948822 
	C1274.821777,351.288727 1293.058716,346.964417 1307.876099,331.612640 
	C1312.942749,326.363281 1318.153198,321.485748 1326.243286,321.987976 
	C1331.743286,322.329407 1336.512573,325.544983 1337.921631,331.000854 
	C1339.363892,336.584778 1340.662598,342.350433 1340.878174,348.079620 
	C1341.549927,365.938965 1340.340332,383.504028 1334.208008,400.693787 
	C1327.588745,419.248901 1314.952759,430.097717 1296.295288,435.043549 
	C1270.992798,441.750916 1245.180298,441.112091 1219.374878,441.019287 
	C1203.651123,440.962738 1188.200439,439.425415 1173.081787,434.681000 
	C1162.573730,431.383392 1161.195679,422.593323 1162.249878,414.548584 
	C1163.597046,404.267426 1165.663940,394.078613 1166.937134,383.790131 
	C1168.841309,368.404205 1170.391479,352.972992 1171.949829,337.546631 
	C1172.511597,331.985016 1172.826660,326.385986 1172.968872,320.796783 
	C1173.390991,304.217438 1173.671021,287.634521 1173.999023,270.595795 
z"/>
<path fill="#4F0EAB" opacity="1.000000" stroke="none" 
	d="
M952.598511,297.121460 
	C953.056519,351.096375 953.051208,404.994995 953.053955,459.348450 
	C937.668335,461.353699 923.550781,457.203766 909.581177,451.078735 
	C899.887573,446.828552 891.686707,440.609711 884.343018,433.538605 
	C872.697266,422.325073 865.239868,408.335938 862.021057,392.349701 
	C859.108887,377.886597 860.801392,363.636963 866.550293,350.291138 
	C871.556213,338.670074 879.013794,328.600891 888.954102,320.184570 
	C897.491150,312.956360 906.686462,307.092316 916.988770,303.373474 
	C928.233826,299.314362 939.899963,296.243134 952.598511,297.121460 
z"/>
<path fill="#4F0EAB" opacity="1.000000" stroke="none" 
	d="
M716.594971,297.115784 
	C717.046936,351.098297 717.035217,405.009003 717.038330,459.376648 
	C706.440979,460.631989 696.154236,459.592499 685.972595,456.032684 
	C675.463806,452.358490 665.854797,447.591675 656.858032,440.837463 
	C650.149170,435.800934 644.813354,429.747131 639.283813,423.722015 
	C638.121216,422.455139 637.488525,420.701935 636.293823,419.010345 
	C635.515503,417.321045 635.309753,415.653107 634.554260,414.289703 
	C628.406128,403.194336 624.939514,391.248932 625.135071,378.659912 
	C625.401245,361.527252 631.259888,346.253265 641.872559,332.578064 
	C650.774536,321.107239 662.256470,313.288513 674.941162,306.263428 
	C688.118713,299.876923 701.729187,296.640411 716.594971,297.115784 
z"/>
<path fill="#8300FF" opacity="1.000000" stroke="none" 
	d="
M916.323059,270.427368 
	C930.097107,270.009491 944.028625,269.989471 958.420288,269.960815 
	C958.286804,270.300812 957.692993,270.953430 957.099243,270.953430 
	C943.559631,270.953766 930.020081,270.882843 916.323059,270.427368 
z"/>
<path fill="#000000" opacity="1.000000" stroke="none" 
	d="
M832.308838,128.657654 
	C841.667786,131.682968 850.727783,134.372192 859.700073,137.327576 
	C870.323181,140.826691 881.213257,143.796463 891.363159,148.378784 
	C903.747681,153.969894 911.163635,164.299973 913.982971,177.717972 
	C914.395752,179.682388 914.698120,181.669998 914.994568,183.327972 
	C900.914001,178.211487 887.285767,172.971710 873.458374,168.324493 
	C862.074463,164.498474 850.042175,162.349442 839.042419,157.695740 
	C825.026001,151.765701 813.473877,142.641357 811.955139,125.609329 
	C811.870789,124.663109 811.234314,123.775131 811.080566,122.823586 
	C810.923828,121.852760 811.045898,120.836899 811.045898,119.924881 
	C818.055420,122.777061 825.013306,125.608223 832.308838,128.657654 
z"/>
<path fill="#000000" opacity="1.000000" stroke="none" 
	d="
M1136.184082,153.690750 
	C1145.682129,161.585785 1149.980713,171.627960 1150.920044,183.701263 
	C1145.447021,181.572800 1140.295044,179.338272 1134.991943,177.552704 
	C1122.220581,173.252563 1109.293335,169.403107 1096.591064,164.913208 
	C1086.081787,161.198425 1075.285400,157.779099 1065.569946,152.480164 
	C1055.823608,147.164352 1050.157715,137.748291 1048.001221,126.604019 
	C1047.569824,124.374619 1047.199585,122.133377 1046.955200,120.762131 
	C1061.906372,125.794777 1076.956909,130.999924 1092.104980,135.904037 
	C1100.284790,138.552231 1108.853882,140.115311 1116.833862,143.227768 
	C1123.509399,145.831482 1129.584229,149.975388 1136.184082,153.690750 
z"/>
</svg>