<svg version="1.1" id="Layer_1" xmlns="http://www.w3.org/2000/svg" xmlns:xlink="http://www.w3.org/1999/xlink" x="0px" y="0px"
	 width="100%" viewBox="0 0 1556 1147" enable-background="new 0 0 1556 1147" xml:space="preserve">
<path fill="#000000" opacity="1.000000" stroke="none" 
	d="
M1557.000000,636.000000 
	C1557.000000,806.628052 1557.000000,977.256104 1557.000000,1148.000000 
	C1127.635742,1148.000000 698.271484,1148.000000 268.151672,1147.630615 
	C269.901093,1146.832031 272.424438,1146.488892 274.908081,1145.959717 
	C290.351654,1142.668457 305.831146,1139.529419 321.213409,1135.971191 
	C344.582245,1130.565308 366.276459,1120.751831 386.691742,1108.514893 
	C410.715118,1094.115356 431.504456,1075.735840 448.943817,1053.637207 
	C464.148132,1034.370483 475.903473,1013.246094 484.317719,990.238098 
	C491.699860,970.052185 495.200775,949.357544 495.161835,927.690430 
	C494.866089,763.201355 495.000000,598.711487 495.000000,434.221832 
	C495.000000,432.233917 495.000000,430.246002 495.000000,428.131592 
	C495.739868,428.198608 496.257874,428.128601 496.676758,428.300354 
	C511.491150,434.374054 526.162354,440.824097 541.130554,446.489777 
	C571.946838,458.154205 603.148560,468.423462 635.768127,474.209869 
	C654.866882,477.597839 673.550842,482.857513 691.544006,490.682587 
	C720.656494,503.343323 745.544006,520.960388 763.204895,547.748840 
	C777.229309,569.021301 785.204956,592.249146 785.007935,617.981689 
	C784.955322,624.851746 785.000000,631.722656 785.000000,638.866760 
	C784.900879,638.855713 785.541199,638.989319 786.181580,638.989502 
	C821.012695,639.000061 855.844055,638.951904 890.674744,639.068909 
	C894.412964,639.081421 895.064697,637.526367 895.051819,634.273315 
	C894.956177,610.108521 895.102173,585.942688 894.979004,561.778198 
	C894.714233,509.862030 894.482910,457.944672 893.872375,406.032135 
	C893.751831,395.777466 892.689148,385.414276 890.846741,375.322815 
	C886.110657,349.382019 877.497131,324.745514 864.001770,301.946503 
	C851.559387,280.926331 836.576538,262.055328 818.334229,245.666321 
	C804.984009,233.672333 790.907227,222.810486 775.772095,213.180298 
	C754.522461,199.659561 731.935486,188.912918 708.444580,180.050247 
	C681.228638,169.782211 652.992676,163.475708 624.296753,158.939819 
	C604.182678,155.760437 585.004822,149.237442 566.798401,140.224869 
	C546.944641,130.396820 529.492004,117.362068 515.971252,99.485069 
	C500.781586,79.401413 492.817383,56.708736 492.156342,31.662268 
	C491.908325,22.265617 493.433380,12.822173 494.158600,3.287952 
	C455.656616,3.287952 416.436798,3.287952 376.892212,3.287952 
	C376.892212,250.982468 376.892212,498.389221 376.892212,746.199097 
	C375.601685,745.817749 374.576477,745.763000 373.857727,745.265503 
	C360.791840,736.222229 346.422638,729.896851 331.368927,725.095947 
	C309.815735,718.222046 287.572296,715.574951 265.056213,715.071960 
	C258.814941,714.932556 252.556595,715.724915 246.301743,715.986145 
	C237.052490,716.372375 227.769150,716.309814 218.555603,717.090576 
	C207.365128,718.038818 196.184235,719.354736 185.084610,721.065613 
	C164.782822,724.194946 145.469574,730.790100 127.009567,739.617432 
	C113.025375,746.304443 99.381660,753.906860 88.035210,764.639282 
	C75.398552,776.591919 62.347969,788.354980 51.371151,801.752075 
	C37.489532,818.694458 27.129311,838.133606 19.107998,858.613098 
	C12.178283,876.305664 6.534846,894.389282 3.910195,913.315491 
	C3.543362,915.960632 1.999174,918.442505 0.999994,921.000000 
	C1.000000,614.397156 1.000000,307.794250 1.000000,1.000000 
	C346.697571,1.000000 692.395142,1.000000 1038.546387,1.468657 
	C1039.000000,248.877029 1039.000000,495.816742 1039.000000,743.295898 
	C1036.893921,742.364746 1035.273560,741.757263 1033.754028,740.958191 
	C1025.650879,736.697327 1017.792297,731.892944 1009.442688,728.194275 
	C988.857666,719.075684 966.970093,714.408386 944.672729,713.269653 
	C925.653687,712.298340 906.516174,713.814819 887.429077,713.956177 
	C869.554504,714.088501 852.102600,717.022278 834.756836,720.988159 
	C813.768433,725.786804 793.983826,733.840210 775.372742,744.408875 
	C754.294983,756.378357 735.810608,771.851074 720.788574,790.937744 
	C711.823730,802.328186 703.328674,814.240967 695.990112,826.723083 
	C684.974426,845.459412 677.148987,865.655212 671.534363,886.750061 
	C667.134949,903.279297 663.573547,920.054016 663.400574,937.002808 
	C663.276733,949.136536 666.413208,961.403748 668.912415,973.441650 
	C673.080872,993.520508 680.570801,1012.393555 690.638306,1030.320312 
	C698.794067,1044.842896 708.266602,1058.382202 719.913147,1070.196533 
	C728.079834,1078.480957 736.912109,1086.210327 746.069336,1093.394531 
	C761.832581,1105.761475 779.094910,1115.912476 797.888062,1122.855835 
	C814.102539,1128.846436 830.606079,1134.360229 847.383484,1138.427612 
	C861.519470,1141.854736 876.175537,1143.659424 890.709045,1144.758179 
	C902.202881,1145.627075 913.920227,1144.954102 925.429260,1143.839478 
	C938.975159,1142.527832 952.503357,1140.509644 965.859741,1137.884644 
	C987.349792,1133.661011 1007.963989,1126.608521 1027.743164,1117.071899 
	C1046.912354,1107.829224 1064.833374,1096.822266 1080.885986,1082.726074 
	C1094.405273,1070.854248 1106.743042,1058.016602 1117.264282,1043.383667 
	C1129.356079,1026.566406 1139.227295,1008.593201 1146.355347,989.156738 
	C1153.019165,970.986267 1157.922974,952.332336 1157.936035,932.866150 
	C1158.047485,765.867126 1158.000000,598.867859 1158.000000,431.868713 
	C1158.000000,429.953888 1158.000000,428.039062 1158.000000,425.616730 
	C1160.484497,426.415222 1162.370117,426.835968 1164.100830,427.605316 
	C1190.922241,439.527649 1218.198853,450.263611 1246.336426,458.671326 
	C1258.793823,462.393677 1271.352661,465.819397 1283.974487,468.938263 
	C1301.151611,473.182770 1318.631348,476.311859 1335.622437,481.173889 
	C1359.731934,488.072815 1381.605347,499.859497 1400.576172,516.283447 
	C1417.265625,530.732300 1430.248169,548.176392 1438.461182,568.910217 
	C1444.425293,583.966675 1447.974243,599.513245 1447.952026,615.747864 
	C1447.942871,622.418213 1447.403076,629.087830 1447.093750,636.000000 
	C1484.044556,636.000000 1520.522339,636.000000 1557.000000,636.000000 
z"/>
<path fill="#FFFFFF" opacity="1.000000" stroke="none" 
	d="
M1557.000000,635.531372 
	C1520.522339,636.000000 1484.044556,636.000000 1447.093750,636.000000 
	C1447.403076,629.087830 1447.942871,622.418213 1447.952026,615.747864 
	C1447.974243,599.513245 1444.425293,583.966675 1438.461182,568.910217 
	C1430.248169,548.176392 1417.265625,530.732300 1400.576172,516.283447 
	C1381.605347,499.859497 1359.731934,488.072815 1335.622437,481.173889 
	C1318.631348,476.311859 1301.151611,473.182770 1283.974487,468.938263 
	C1271.352661,465.819397 1258.793823,462.393677 1246.336426,458.671326 
	C1218.198853,450.263611 1190.922241,439.527649 1164.100830,427.605316 
	C1162.370117,426.835968 1160.484497,426.415222 1158.000000,425.616730 
	C1158.000000,428.039062 1158.000000,429.953888 1158.000000,431.868713 
	C1158.000000,598.867859 1158.047485,765.867126 1157.936035,932.866150 
	C1157.922974,952.332336 1153.019165,970.986267 1146.355347,989.156738 
	C1139.227295,1008.593201 1129.356079,1026.566406 1117.264282,1043.383667 
	C1106.743042,1058.016602 1094.405273,1070.854248 1080.885986,1082.726074 
	C1064.833374,1096.822266 1046.912354,1107.829224 1027.743164,1117.071899 
	C1007.963989,1126.608521 987.349792,1133.661011 965.859741,1137.884644 
	C952.503357,1140.509644 938.975159,1142.527832 925.429260,1143.839478 
	C913.920227,1144.954102 902.202881,1145.627075 890.709045,1144.758179 
	C876.175537,1143.659424 861.519470,1141.854736 847.383484,1138.427612 
	C830.606079,1134.360229 814.102539,1128.846436 797.888062,1122.855835 
	C779.094910,1115.912476 761.832581,1105.761475 746.069336,1093.394531 
	C736.912109,1086.210327 728.079834,1078.480957 719.913147,1070.196533 
	C708.266602,1058.382202 698.794067,1044.842896 690.638306,1030.320312 
	C680.570801,1012.393555 673.080872,993.520508 668.912415,973.441650 
	C666.413208,961.403748 663.276733,949.136536 663.400574,937.002808 
	C663.573547,920.054016 667.134949,903.279297 671.534363,886.750061 
	C677.148987,865.655212 684.974426,845.459412 695.990112,826.723083 
	C703.328674,814.240967 711.823730,802.328186 720.788574,790.937744 
	C735.810608,771.851074 754.294983,756.378357 775.372742,744.408875 
	C793.983826,733.840210 813.768433,725.786804 834.756836,720.988159 
	C852.102600,717.022278 869.554504,714.088501 887.429077,713.956177 
	C906.516174,713.814819 925.653687,712.298340 944.672729,713.269653 
	C966.970093,714.408386 988.857666,719.075684 1009.442688,728.194275 
	C1017.792297,731.892944 1025.650879,736.697327 1033.754028,740.958191 
	C1035.273560,741.757263 1036.893921,742.364746 1039.000000,743.295898 
	C1039.000000,495.816742 1039.000000,248.877029 1039.000000,1.468657 
	C1078.020874,1.000000 1117.041870,1.000000 1156.531372,1.433658 
	C1156.333374,6.355441 1155.017090,10.859755 1155.128540,15.328484 
	C1155.402710,26.328932 1155.463989,37.451130 1157.184082,48.274349 
	C1160.551636,69.463593 1170.173706,87.974358 1184.472900,103.922493 
	C1199.133545,120.273796 1216.880737,132.281372 1237.005371,141.081924 
	C1255.546631,149.190063 1274.807861,154.812256 1294.694580,157.838806 
	C1314.041870,160.783279 1332.930542,165.233231 1351.631836,170.883606 
	C1377.106812,178.580566 1401.245361,189.288803 1424.488647,202.114716 
	C1445.000366,213.433289 1464.110352,226.863480 1481.119873,242.912491 
	C1491.382446,252.595490 1500.707397,263.382507 1509.650269,274.329742 
	C1525.686646,293.960327 1537.043945,316.247620 1545.065308,340.280548 
	C1549.934326,354.868683 1553.545776,369.704224 1555.078613,385.031189 
	C1555.149902,385.744385 1556.334106,386.346252 1557.000000,387.000000 
	C1557.000000,469.687561 1557.000000,552.375122 1557.000000,635.531372 
M1207.386353,318.033112 
	C1208.232788,318.832581 1208.983276,319.777344 1209.939941,320.410095 
	C1229.072510,333.063354 1249.067383,343.255371 1271.884888,348.334045 
	C1293.755615,353.201996 1315.201538,360.183319 1336.560669,367.082184 
	C1354.528076,372.885529 1372.280273,379.464966 1389.792114,386.532318 
	C1402.702271,391.742584 1415.131104,398.171417 1427.656250,404.298767 
	C1433.744995,407.277496 1439.563354,410.809052 1445.752808,414.227661 
	C1445.883179,413.120728 1446.070312,412.607391 1445.979004,412.149506 
	C1442.581665,395.098816 1438.008423,378.413452 1430.286499,362.741333 
	C1421.317017,344.537018 1409.408691,328.619446 1393.416504,315.953308 
	C1384.644043,309.005463 1375.149292,302.817841 1364.330933,300.165955 
	C1324.247192,290.340302 1284.420166,279.658905 1245.545654,265.766083 
	C1225.645752,258.654358 1206.045898,250.680664 1186.447998,242.756607 
	C1176.973145,238.925690 1167.815796,234.310211 1157.250610,229.470963 
	C1158.246216,236.905914 1158.677124,243.551361 1160.087891,249.981888 
	C1163.558472,265.801666 1170.325928,280.252502 1181.076660,292.373260 
	C1189.067139,301.382141 1198.093994,309.471710 1207.386353,318.033112 
z"/>
<path fill="#FFFFFF" opacity="1.000000" stroke="none" 
	d="
M0.999994,921.468628 
	C1.999174,918.442505 3.543362,915.960632 3.910195,913.315491 
	C6.534846,894.389282 12.178283,876.305664 19.107998,858.613098 
	C27.129311,838.133606 37.489532,818.694458 51.371151,801.752075 
	C62.347969,788.354980 75.398552,776.591919 88.035210,764.639282 
	C99.381660,753.906860 113.025375,746.304443 127.009567,739.617432 
	C145.469574,730.790100 164.782822,724.194946 185.084610,721.065613 
	C196.184235,719.354736 207.365128,718.038818 218.555603,717.090576 
	C227.769150,716.309814 237.052490,716.372375 246.301743,715.986145 
	C252.556595,715.724915 258.814941,714.932556 265.056213,715.071960 
	C287.572296,715.574951 309.815735,718.222046 331.368927,725.095947 
	C346.422638,729.896851 360.791840,736.222229 373.857727,745.265503 
	C374.576477,745.763000 375.601685,745.817749 376.892212,746.199097 
	C376.892212,498.389221 376.892212,250.982468 376.892212,3.287952 
	C416.436798,3.287952 455.656616,3.287952 494.158600,3.287952 
	C493.433380,12.822173 491.908325,22.265617 492.156342,31.662268 
	C492.817383,56.708736 500.781586,79.401413 515.971252,99.485069 
	C529.492004,117.362068 546.944641,130.396820 566.798401,140.224869 
	C585.004822,149.237442 604.182678,155.760437 624.296753,158.939819 
	C652.992676,163.475708 681.228638,169.782211 708.444580,180.050247 
	C731.935486,188.912918 754.522461,199.659561 775.772095,213.180298 
	C790.907227,222.810486 804.984009,233.672333 818.334229,245.666321 
	C836.576538,262.055328 851.559387,280.926331 864.001770,301.946503 
	C877.497131,324.745514 886.110657,349.382019 890.846741,375.322815 
	C892.689148,385.414276 893.751831,395.777466 893.872375,406.032135 
	C894.482910,457.944672 894.714233,509.862030 894.979004,561.778198 
	C895.102173,585.942688 894.956177,610.108521 895.051819,634.273315 
	C895.064697,637.526367 894.412964,639.081421 890.674744,639.068909 
	C855.844055,638.951904 821.012695,639.000061 786.181580,638.989502 
	C785.541199,638.989319 784.900879,638.855713 785.000000,638.866760 
	C785.000000,631.722656 784.955322,624.851746 785.007935,617.981689 
	C785.204956,592.249146 777.229309,569.021301 763.204895,547.748840 
	C745.544006,520.960388 720.656494,503.343323 691.544006,490.682587 
	C673.550842,482.857513 654.866882,477.597839 635.768127,474.209869 
	C603.148560,468.423462 571.946838,458.154205 541.130554,446.489777 
	C526.162354,440.824097 511.491150,434.374054 496.676758,428.300354 
	C496.257874,428.128601 495.739868,428.198608 495.000000,428.131592 
	C495.000000,430.246002 495.000000,432.233917 495.000000,434.221832 
	C495.000000,598.711487 494.866089,763.201355 495.161835,927.690430 
	C495.200775,949.357544 491.699860,970.052185 484.317719,990.238098 
	C475.903473,1013.246094 464.148132,1034.370483 448.943817,1053.637207 
	C431.504456,1075.735840 410.715118,1094.115356 386.691742,1108.514893 
	C366.276459,1120.751831 344.582245,1130.565308 321.213409,1135.971191 
	C305.831146,1139.529419 290.351654,1142.668457 274.908081,1145.959717 
	C272.424438,1146.488892 269.901093,1146.832031 267.698059,1147.630615 
	C250.979111,1148.000000 233.958206,1148.000000 216.770599,1147.630615 
	C213.021042,1146.507935 209.431717,1145.784180 205.856491,1144.996460 
	C191.099274,1141.744385 176.214981,1138.966797 161.623840,1135.087891 
	C141.716934,1129.796143 123.208038,1120.980713 105.336052,1110.790161 
	C82.636986,1097.847046 63.071377,1081.084717 46.682766,1060.914917 
	C36.265141,1048.093750 27.668396,1033.939575 20.825762,1018.697083 
	C13.155371,1001.610718 7.293317,984.081848 3.926039,965.671753 
	C3.441875,963.024658 1.999125,960.552917 0.999995,958.000000 
	C1.000000,945.979126 1.000000,933.958191 0.999994,921.468628 
M616.019226,279.526184 
	C574.886353,266.142151 534.115417,251.835220 494.767517,231.758499 
	C495.213898,237.121368 495.200562,242.038071 496.090271,246.785538 
	C500.312958,269.317139 510.769684,288.746002 526.727356,305.044556 
	C532.997925,311.448975 540.076172,317.143829 547.217712,322.597198 
	C561.898743,333.807831 577.993103,343.144989 595.794922,347.655731 
	C629.586731,356.218140 663.302490,364.954041 695.951721,377.171783 
	C716.642761,384.914612 736.913940,393.829010 757.131104,402.766174 
	C765.997131,406.685486 774.258484,411.972534 783.465942,417.005585 
	C782.710938,412.870972 782.173401,409.352753 781.417236,405.882111 
	C777.498779,387.896729 771.498535,370.674164 761.957153,354.852844 
	C753.400635,340.664490 743.183960,327.949371 729.740051,317.896210 
	C718.325439,309.360535 705.930420,303.735596 692.024780,300.319824 
	C666.780457,294.118988 641.808044,286.811035 616.019226,279.526184 
z"/>
<path fill="#000000" opacity="1.000000" stroke="none" 
	d="
M1557.000000,386.531342 
	C1556.334106,386.346252 1555.149902,385.744385 1555.078613,385.031189 
	C1553.545776,369.704224 1549.934326,354.868683 1545.065308,340.280548 
	C1537.043945,316.247620 1525.686646,293.960327 1509.650269,274.329742 
	C1500.707397,263.382507 1491.382446,252.595490 1481.119873,242.912491 
	C1464.110352,226.863480 1445.000366,213.433289 1424.488647,202.114716 
	C1401.245361,189.288803 1377.106812,178.580566 1351.631836,170.883606 
	C1332.930542,165.233231 1314.041870,160.783279 1294.694580,157.838806 
	C1274.807861,154.812256 1255.546631,149.190063 1237.005371,141.081924 
	C1216.880737,132.281372 1199.133545,120.273796 1184.472900,103.922493 
	C1170.173706,87.974358 1160.551636,69.463593 1157.184082,48.274349 
	C1155.463989,37.451130 1155.402710,26.328932 1155.128540,15.328484 
	C1155.017090,10.859755 1156.333374,6.355441 1157.000000,1.433658 
	C1290.259033,1.000000 1423.518188,1.000000 1557.000000,1.000000 
	C1557.000000,129.354141 1557.000000,257.708405 1557.000000,386.531342 
z"/>
<path fill="#000000" opacity="1.000000" stroke="none" 
	d="
M0.999995,958.468628 
	C1.999125,960.552917 3.441875,963.024658 3.926039,965.671753 
	C7.293317,984.081848 13.155371,1001.610718 20.825762,1018.697083 
	C27.668396,1033.939575 36.265141,1048.093750 46.682766,1060.914917 
	C63.071377,1081.084717 82.636986,1097.847046 105.336052,1110.790161 
	C123.208038,1120.980713 141.716934,1129.796143 161.623840,1135.087891 
	C176.214981,1138.966797 191.099274,1141.744385 205.856491,1144.996460 
	C209.431717,1145.784180 213.021042,1146.507935 216.301941,1147.630615 
	C144.410812,1148.000000 72.821625,1148.000000 1.000000,1148.000000 
	C1.000000,1084.979248 1.000000,1021.958313 0.999995,958.468628 
z"/>
<path fill="#000000" opacity="1.000000" stroke="none" 
	d="
M1207.022827,318.001892 
	C1198.093994,309.471710 1189.067139,301.382141 1181.076660,292.373260 
	C1170.325928,280.252502 1163.558472,265.801666 1160.087891,249.981888 
	C1158.677124,243.551361 1158.246216,236.905914 1157.250610,229.470963 
	C1167.815796,234.310211 1176.973145,238.925690 1186.447998,242.756607 
	C1206.045898,250.680664 1225.645752,258.654358 1245.545654,265.766083 
	C1284.420166,279.658905 1324.247192,290.340302 1364.330933,300.165955 
	C1375.149292,302.817841 1384.644043,309.005463 1393.416504,315.953308 
	C1409.408691,328.619446 1421.317017,344.537018 1430.286499,362.741333 
	C1438.008423,378.413452 1442.581665,395.098816 1445.979004,412.149506 
	C1446.070312,412.607391 1445.883179,413.120728 1445.752808,414.227661 
	C1439.563354,410.809052 1433.744995,407.277496 1427.656250,404.298767 
	C1415.131104,398.171417 1402.702271,391.742584 1389.792114,386.532318 
	C1372.280273,379.464966 1354.528076,372.885529 1336.560669,367.082184 
	C1315.201538,360.183319 1293.755615,353.201996 1271.884888,348.334045 
	C1249.067383,343.255371 1229.072510,333.063354 1209.939941,320.410095 
	C1208.983276,319.777344 1208.232788,318.832581 1207.022827,318.001892 
z"/>
<path fill="#000000" opacity="1.000000" stroke="none" 
	d="
M616.370728,279.745667 
	C641.808044,286.811035 666.780457,294.118988 692.024780,300.319824 
	C705.930420,303.735596 718.325439,309.360535 729.740051,317.896210 
	C743.183960,327.949371 753.400635,340.664490 761.957153,354.852844 
	C771.498535,370.674164 777.498779,387.896729 781.417236,405.882111 
	C782.173401,409.352753 782.710938,412.870972 783.465942,417.005585 
	C774.258484,411.972534 765.997131,406.685486 757.131104,402.766174 
	C736.913940,393.829010 716.642761,384.914612 695.951721,377.171783 
	C663.302490,364.954041 629.586731,356.218140 595.794922,347.655731 
	C577.993103,343.144989 561.898743,333.807831 547.217712,322.597198 
	C540.076172,317.143829 532.997925,311.448975 526.727356,305.044556 
	C510.769684,288.746002 500.312958,269.317139 496.090271,246.785538 
	C495.200562,242.038071 495.213898,237.121368 494.767517,231.758499 
	C534.115417,251.835220 574.886353,266.142151 616.370728,279.745667 
z"/>
</svg>